<svg xmlns="http://www.w3.org/2000/svg" viewBox="0 0 64 64"><title>Artboard-28</title><g id="Delivery_truck" data-name="Delivery truck"><polygon points="45 28 56.235 28 55.164 24 45 24 45 28" style="fill:#232328"/><path d="M60,30H44a1.0029,1.0029,0,0,1-1-1V23a1.0029,1.0029,0,0,1,1-1H54.67l-.69-3.21A1.0054,1.0054,0,0,0,53,18H38V47.98a.0215.0215,0,0,0,.02.02h4.04q-.045-.36-.06-.72A9.0022,9.0022,0,1,1,60,47a8.2619,8.2619,0,0,1-.06,1H63a1.0029,1.0029,0,0,0,1-1V34A3.9989,3.9989,0,0,0,60,30ZM46,36H44a1,1,0,0,1,0-2h2a1,1,0,0,1,0,2Z" style="fill:#232328"/><circle cx="15" cy="47" r="1" style="fill:#232328"/><path d="M15,40a6.9938,6.9938,0,0,0-4.89,12H1a1,1,0,0,0,0,2H15a7,7,0,0,0,0-14Zm0,10a3,3,0,1,1,3-3A3.0088,3.0088,0,0,1,15,50Z" style="fill:#232328"/><circle cx="51" cy="47" r="1" style="fill:#232328"/><path d="M51,40a6.9938,6.9938,0,0,0-4.89,12H33a1,1,0,0,0,0,2H51a7,7,0,0,0,0-14Zm0,10a3,3,0,1,1,3-3A3.0088,3.0088,0,0,1,51,50Z" style="fill:#232328"/><path d="M20,17a2,2,0,0,0-4,0v2h4Z" style="fill:#232328"/><path d="M23,21H13a1.0029,1.0029,0,0,0-1,1v8a3.0088,3.0088,0,0,0,3,3h6a3.0088,3.0088,0,0,0,3-3V22A1.0029,1.0029,0,0,0,23,21Zm-8,4a1,1,0,1,1,1-1A1.0029,1.0029,0,0,1,15,25Zm6,0a1,1,0,1,1,1-1A1.0029,1.0029,0,0,1,21,25Z" style="fill:#232328"/><path d="M36,48V11a1.0029,1.0029,0,0,0-1-1H1a1.0029,1.0029,0,0,0-1,1V47a1.0029,1.0029,0,0,0,1,1H6.06A8.2619,8.2619,0,0,1,6,47a9.0022,9.0022,0,1,1,18,.28q-.015.36-.06.72ZM21,35H15a5.0018,5.0018,0,0,1-5-5V22a3.0088,3.0088,0,0,1,3-3h1V17a4,4,0,0,1,8,0v2h1a3.0088,3.0088,0,0,1,3,3v8A5.0018,5.0018,0,0,1,21,35Z" style="fill:#232328"/><path d="M29,52H27a1,1,0,0,0,0,2h2a1,1,0,0,0,0-2Z" style="fill:#232328"/></g></svg>